<svg xmlns="http://www.w3.org/2000/svg" viewBox="0 0 512 512" role="img" aria-label="Samuel AI">
  <defs>
    <linearGradient id="bg" x1="72" y1="48" x2="438" y2="462" gradientUnits="userSpaceOnUse">
      <stop stop-color="#2f80ff"/>
      <stop offset="0.55" stop-color="#1559dc"/>
      <stop offset="1" stop-color="#071a48"/>
    </linearGradient>
    <radialGradient id="glow" cx="0" cy="0" r="1" gradientTransform="translate(256 226) rotate(90) scale(196)">
      <stop stop-color="#90f3ff" stop-opacity="0.72"/>
      <stop offset="1" stop-color="#27b9f0" stop-opacity="0"/>
    </radialGradient>
    <filter id="soft" x="-80%" y="-80%" width="260%" height="260%">
      <feGaussianBlur stdDeviation="8"/>
    </filter>
  </defs>
  <rect width="512" height="512" rx="112" fill="url(#bg)"/>
  <circle cx="256" cy="226" r="190" fill="url(#glow)"/>
  <g fill="none" stroke="#b9f7ff" stroke-linecap="round">
    <circle cx="256" cy="224" r="142" stroke-opacity="0.27" stroke-width="3" stroke-dasharray="7 17"/>
    <circle cx="256" cy="224" r="109" stroke-opacity="0.4" stroke-width="2" stroke-dasharray="34 12 5 12"/>
  </g>
  <g stroke="#e4fdff" stroke-width="14" stroke-linecap="round" stroke-linejoin="round">
    <path d="M256 130v188M174 177l164 94M338 177l-164 94" opacity="0.94"/>
    <path d="M193 117l63 36 63-36M193 331l63-36 63 36M151 214l63 36M361 214l-63 36" opacity="0.78"/>
  </g>
  <g fill="#fff">
    <circle cx="256" cy="153" r="22"/>
    <circle cx="193" cy="117" r="18"/>
    <circle cx="319" cy="117" r="18"/>
    <circle cx="151" cy="214" r="18"/>
    <circle cx="361" cy="214" r="18"/>
    <circle cx="193" cy="331" r="18"/>
    <circle cx="319" cy="331" r="18"/>
    <circle cx="256" cy="295" r="22"/>
  </g>
  <circle cx="256" cy="224" r="31" fill="#82efff" filter="url(#soft)" opacity="0.85"/>
  <circle cx="256" cy="224" r="23" fill="#fff"/>
  <path d="M165 398h182" stroke="#8cf3ff" stroke-width="10" stroke-linecap="round"/>
  <path d="M199 398c18 28 39 42 57 42s39-14 57-42" fill="none" stroke="#dffcff" stroke-width="9" stroke-linecap="round"/>
</svg>
